# xmcd
#
# Track frame offsets: 
#        150
#        32935
#        59402
#        84722
#        131705
#        145320
#        189045
#        226757
#        250790
#
# Disc length: 3758 seconds
#
# Revision: 0
# Processed by: cddbd v1.5.1PL0 Copyright (c) Steve Scherf et al.
# Submitted via: ExactAudioCopy v0.95a5
#
DISCID=760eac09
DTITLE=Various Artist - Eyes On The Prize
DYEAR=1994
DGENRE=Soul
TTITLE0=Together Forever - Exodus
TTITLE1=Keep In Touch (Body To Body) - The Shades Of Love
TTITLE2=Heavy Vibes - The Vince Montana Sextet
TTITLE3=Get Down Friday Night - The Fantastic Aleems (feat. Leroy Burg
TTITLE3=ess)
TTITLE4=Long Enough - The Last Poets
TTITLE5=Barely Breaking Even - Universal Robot Band
TTITLE6=Weekend - Class Action (feat. Chris Wiltshire)
TTITLE7=What Happened To The Music - Earl Youngs Trammps
TTITLE8=Disco Juice - Cloud 9
EXTD=
EXTT0=
EXTT1=
EXTT2=
EXTT3=
EXTT4=
EXTT5=
EXTT6=
EXTT7=
EXTT8=
PLAYORDER=
